<?xml version="1.0" encoding="utf-8"?>
<!DOCTYPE svg PUBLIC "-//W3C//DTD SVG 1.0//EN" "http://www.w3.org/TR/2001/REC-SVG-20010904/DTD/svg10.dtd">
<svg version="1.0" xmlns="http://www.w3.org/2000/svg" width="1148px" height="191px" viewBox="0 0 1148 191" preserveAspectRatio="xMidYMid meet">
 <g fill="#4c6ddf">
  <path d="M777.4 158 c-10.2 -2.7 -16.9 -6.4 -23.6 -13.1 -11.2 -11.1 -13.8 -20.8 -13.8 -51.5 0 -17.7 0.3 -22.3 2 -28.7 4.6 -18.1 16.9 -29.6 36.6 -34.3 9.5 -2.2 28.8 -2.3 37.4 0 20.2 5.2 35.3 18.4 37.6 32.5 1.1 6.8 0.3 7.1 -16.7 7.1 -13.4 0 -15.1 -0.2 -16.5 -1.9 -10.2 -12.3 -14.8 -14.7 -25.9 -13.8 -12.1 0.9 -18.4 6.8 -20.6 19.1 -1.4 8.1 -0.7 41.4 1 46.8 4.4 13.9 24.3 19.3 38 10.3 5.5 -3.7 8.4 -9.5 8.5 -16.9 l0.1 -6.1 -9.4 -0.3 c-5.2 -0.1 -10.1 -0.8 -10.8 -1.4 -1.7 -1.4 -1.8 -17.9 -0.1 -19.6 0.9 -0.9 8 -1.2 25.9 -1.2 21.9 0 24.9 0.2 26.5 1.7 2.5 2.6 1.5 31 -1.5 40.5 -5.3 16.4 -20.6 28.6 -40.2 31.8 -10.2 1.6 -26.4 1.2 -34.5 -1z"/>
  <path d="M559.3 158 c-1.2 -0.5 -2.5 -1.9 -2.8 -3.2 -0.3 -1.3 -0.4 -29.4 -0.3 -62.6 0.3 -52.3 0.5 -60.4 1.8 -61.3 0.9 -0.6 13.5 -0.8 34 -0.6 34.7 0.4 36.9 0.7 48.2 6 7.7 3.6 13.3 8.9 16.8 16.1 5.4 10.9 5.9 25.3 1.2 35.9 -2.5 5.7 -9.2 13.1 -15 16.4 -3 1.8 -4.1 3 -3.7 4.1 0.3 0.8 6.2 11.6 13.2 24 l12.6 22.6 -2.4 1.9 c-2 1.6 -3.8 1.8 -15.5 1.5 -11.3 -0.3 -13.5 -0.6 -15.3 -2.2 -1.2 -1.1 -6.9 -11.3 -12.8 -22.8 l-10.8 -20.8 -9.7 0 -9.8 0 0 20.8 c0 16.4 -0.3 21.2 -1.4 22.8 -1.3 1.7 -2.9 1.9 -13.8 2.1 -6.8 0.2 -13.3 -0.2 -14.5 -0.7z m61.5 -72.5 c9.2 -5.4 9.6 -21.5 0.9 -27.9 -2.5 -1.9 -4.6 -2.1 -17.8 -2.4 l-14.9 -0.4 0 16.7 0 16.7 14.3 -0.4 c11.9 -0.3 14.7 -0.7 17.5 -2.3z"/>
  <path d="M686.2 157.4 l-2.2 -1.5 0 -61.8 c0 -46.6 0.3 -62 1.2 -62.9 1.7 -1.7 28.9 -1.7 30.6 0 0.9 0.9 1.2 16.4 1.2 63.5 l0 62.3 -2.6 1 c-1.4 0.6 -7.8 1 -14.2 1 -9 0 -12.3 -0.4 -14 -1.6z"/>
  <path d="M880 158.3 c-0.8 -0.3 -1.8 -1.1 -2.2 -1.7 -0.4 -0.6 -0.8 -28.9 -0.8 -62.8 0 -60 0.1 -61.8 1.9 -62.8 1.1 -0.5 7.4 -1 14.1 -1 6.7 0 13 0.5 14.1 1 1.8 1 1.9 2.4 1.9 24.5 l0 23.5 23.5 0 23.5 0 0 -23.5 c0 -22.1 0.1 -23.5 1.9 -24.5 1.1 -0.5 7.6 -1 14.5 -1 10 0 12.8 0.3 14 1.6 1.4 1.4 1.6 8.5 1.6 62.9 l0 61.5 -2.5 1.6 c-3.3 2.2 -27.1 1.7 -28.5 -0.6 -0.5 -0.8 -1 -12.1 -1 -25.2 l0 -23.8 -23.5 0 -23.5 0 0 23.8 c0 13.1 -0.5 24.4 -1 25.2 -0.7 1.2 -3.6 1.5 -13.7 1.7 -7 0.1 -13.5 -0.1 -14.3 -0.4z"/>
  <path d="M1046 157.7 l-2.5 -1.3 -0.3 -49.2 -0.2 -49.2 -17.3 0 c-12.1 0 -17.7 -0.4 -18.5 -1.2 -1.7 -1.7 -1.7 -23.9 0 -25.6 1.7 -1.7 102.9 -1.7 104.6 0 0.8 0.8 1.2 5.1 1.2 12.8 0 7.7 -0.4 12 -1.2 12.8 -0.8 0.8 -6.4 1.2 -18.5 1.2 l-17.3 0 0 48.3 c0 40.1 -0.2 48.6 -1.4 50.3 -1.3 1.7 -2.9 1.9 -13.8 2.2 -8.7 0.2 -13 -0.1 -14.8 -1.1z"/>
 </g>
 <g fill="#232321">
  <path d="M211.1 158.9 c-19.9 -3.9 -32.6 -14.5 -38.3 -31.9 -1.8 -5.6 -2.2 -9.6 -2.6 -28 -0.6 -30.9 1.9 -42.1 11.9 -53.4 11.5 -12.9 31.6 -19.1 53.4 -16.5 24.2 2.9 38.3 13.6 44.7 34 2.1 6.9 2.3 9 2.3 31.9 0 20.9 -0.3 25.4 -1.8 30.5 -5.5 17.7 -18.1 28.9 -37.3 33 -7.5 1.6 -25.2 1.8 -32.3 0.4z m26.5 -26.7 c4.9 -2.5 6.8 -4.6 9.6 -10.7 2.1 -4.7 2.3 -6.3 2.3 -26 0 -23.4 -0.8 -27.9 -5.8 -34 -4.1 -5 -9.7 -7.5 -17.2 -7.5 -7.4 0 -12.9 2.4 -17.2 7.3 -5.1 5.9 -5.8 9.7 -5.8 33.7 l0 21.5 3 6 c3.2 6.3 5.8 8.8 12.1 11.1 5 1.9 13.8 1.2 19 -1.4z"/>
  <path d="M45 158.3 c-0.8 -0.3 -1.8 -1.1 -2.2 -1.7 -0.4 -0.6 -0.8 -28.9 -0.8 -62.8 l0 -61.7 2.1 -1.2 c3.5 -1.8 61.7 -0.6 69.7 1.5 19.2 4.9 31.5 16.9 35.6 34.9 2.3 9.7 2.2 44 0 54 -3.2 14.4 -10.6 24.6 -21.7 30.4 -11 5.6 -17.6 6.5 -50.7 6.9 -16.8 0.2 -31.2 0.1 -32 -0.3z m62.5 -28.4 c6.6 -3.4 9.3 -8.1 10.5 -19.1 2.1 -18 0.6 -38.1 -3.2 -45 -1.4 -2.4 -4.1 -5.1 -6.8 -6.6 -4.2 -2.5 -5.4 -2.7 -19.2 -3 l-14.8 -0.4 0 38.7 0 38.7 14.3 -0.3 c12.9 -0.4 14.8 -0.7 19.2 -3z"/>
  <path d="M348 158.3 c-0.8 -0.3 -1.8 -1.1 -2.2 -1.7 -0.4 -0.6 -0.8 -28.8 -0.8 -62.6 0 -46.6 0.3 -61.9 1.2 -62.8 1.7 -1.7 28.9 -1.7 30.6 0 1.5 1.5 1.7 123.4 0.2 125.8 -0.7 1.2 -3.7 1.5 -14.2 1.7 -7.3 0.1 -14 -0.1 -14.8 -0.4z"/>
  <path d="M437 158.3 c-3.9 -1.4 -4 -2.1 -4 -52 l0 -48.3 -17.3 0 c-12.1 0 -17.7 -0.4 -18.5 -1.2 -0.8 -0.8 -1.2 -5.1 -1.2 -13 0 -10.6 0.2 -11.8 1.9 -12.8 2.7 -1.4 100.5 -1.4 103.2 0 1.7 1 1.9 2.2 1.9 12.8 0 7.9 -0.4 12.2 -1.2 13 -0.8 0.8 -6.4 1.2 -18.5 1.2 l-17.3 0 0 48.9 0 49 -2.2 1.5 c-1.7 1.2 -4.9 1.6 -13.8 1.5 -6.3 0 -12.2 -0.3 -13 -0.6z"/>
 </g>
</svg>