<svg width="28" height="28" viewBox="0 0 28 28" fill="none" xmlns="http://www.w3.org/2000/svg">
<path d="M12.1797 2.64844C17.4352 2.64844 21.7117 6.92418 21.7119 12.1797L21.7041 12.5654C21.6281 14.4867 20.969 16.3426 19.8105 17.8848L19.7988 17.9014L24.959 23.0615C25.1585 23.2853 25.2768 23.5685 25.2969 23.8652L25.2988 23.9932C25.2892 24.3364 25.1491 24.6634 24.9062 24.9062C24.6634 25.1491 24.3364 25.2892 23.9932 25.2988L23.8652 25.2969C23.6104 25.2796 23.3659 25.1894 23.1602 25.0381L23.0605 24.958L17.9014 19.7988L17.8848 19.8105C16.2397 21.0463 14.2372 21.7142 12.1797 21.7119L11.6904 21.6992C6.66137 21.4435 2.64844 17.2712 2.64844 12.1797C2.64861 6.92429 6.92429 2.64861 12.1797 2.64844ZM13.5156 5.46289C12.2703 5.21527 10.9821 5.31873 9.79492 5.75977L9.55957 5.85254C8.38645 6.33846 7.37299 7.14076 6.63086 8.16699L6.48535 8.375C5.73291 9.50113 5.33209 10.8253 5.33203 12.1797L5.34082 12.5195C5.42095 14.0987 6.04408 15.6024 7.10547 16.7744L7.33984 17.0205C8.54351 18.2241 10.1488 18.9338 11.8408 19.0195L12.1797 19.0283C13.5341 19.0283 14.8582 18.6265 15.9844 17.874C17.1106 17.1215 17.9885 16.0521 18.5068 14.8008C18.9928 13.6277 19.1423 12.3442 18.9414 11.0938L18.8965 10.8438C18.6487 9.59845 18.0599 8.44854 17.1982 7.52051L17.0225 7.33789C16.1245 6.43996 14.9959 5.81047 13.7637 5.51758L13.5156 5.46289Z" fill="#232321" stroke="#232321" stroke-width="0.046875"/>
</svg>
